*%FSLAX23Y23*%
*%MOIN*%
G01*
D14*
X7969Y6174D02*
X8129Y6334D01*
X9969Y6774D02*
X10089Y6894D01*
X8149Y6294D02*
X7989Y6134D01*
X7629Y6394D02*
X7449Y6214D01*
Y6254D02*
X7589Y6394D01*
X9409Y9314D02*
X9609Y9514D01*
X10089Y6274D02*
X9929Y6114D01*
X9909Y6194D02*
X10069Y6354D01*
X9129Y6914D02*
X8989Y6774D01*
X9009Y7794D02*
X9169Y7954D01*
X10569Y7874D02*
X10729Y8034D01*
X9589Y7494D02*
X9429Y7334D01*
X7589Y7294D02*
X7469Y7174D01*
X10009Y8834D02*
X10129Y8714D01*
X9629Y7174D02*
X9809Y6994D01*
X7369Y6254D02*
X7149Y6474D01*
Y6694D02*
X6889Y6954D01*
X9089Y9394D02*
X9369Y9114D01*
X9429Y6474D02*
X9609Y6294D01*
X10549Y9154D02*
X10289Y9414D01*
X10429Y9534D02*
X10689Y9274D01*
X10469Y9074D02*
X10209Y9334D01*
X10609Y8534D02*
X10729Y8414D01*
X10609Y9174D02*
X10269Y9514D01*
X7409Y7094D02*
X7149Y7354D01*
X9009Y7714D02*
X9149Y7574D01*
X9409Y9114D02*
X9249Y9274D01*
X10269Y9474D02*
X10589Y9154D01*
Y8454D02*
X10729Y8314D01*
X10869Y9194D02*
X10729Y9334D01*
X10749Y9414D02*
X10969Y9194D01*
X10729Y7734D02*
X10869Y7594D01*
X10689Y7334D02*
X10809Y7214D01*
X9789Y6854D02*
X9609Y7034D01*
X9489Y6874D02*
X9369Y6994D01*
X9109Y7494D02*
X8949Y7654D01*
X9189Y8914D02*
X8989Y9114D01*
X10549Y7054D02*
X10689Y6914D01*
X10729Y6554D02*
X10869Y6414D01*
X9369Y8974D02*
X9249Y9094D01*
X7689Y6114D02*
X7669D01*
X7789D02*
X7809D01*
X8969D02*
X8989D01*
X8729D02*
X8689D01*
X8309D02*
X8289D01*
X8509Y6154D02*
X8589D01*
X9489Y6114D02*
X9929D01*
X7449Y6214D02*
X7109D01*
X9189D02*
X9629D01*
X7449Y6254D02*
X7369D01*
X9809Y6354D02*
X9909D01*
X10869Y6414D02*
X11069D01*
X6889Y6474D02*
X6849D01*
X10689Y6434D02*
X10729D01*
X10629D02*
X10589D01*
X9909Y6454D02*
X9869D01*
X9609Y6494D02*
X9549D01*
X7129Y6434D02*
X7049D01*
X7569Y6594D02*
X7609D01*
X9909Y6554D02*
X9929D01*
X9609D02*
X9569D01*
X9889Y6654D02*
X9909D01*
X10089Y6594D02*
X10129D01*
X10709D02*
X10729D01*
X7449Y6514D02*
X7409D01*
X8389Y6814D02*
X8429D01*
X8229D02*
X8189D01*
X8029D02*
X7989D01*
X7929D02*
X7889D01*
X7609Y6714D02*
X7589D01*
X6929Y6834D02*
X6829D01*
X7549Y6814D02*
X7589D01*
X9349Y6714D02*
X9389D01*
X9289Y6774D02*
X9229D01*
X6909Y6794D02*
Y6494D01*
X6949Y6534D02*
Y6814D01*
X6849Y6334D02*
Y6314D01*
X6889Y6474D02*
X6909Y6494D01*
X6949Y6534D02*
X7049Y6434D01*
X6949Y6814D02*
X6929Y6834D01*
X10309Y6934D02*
X10609D01*
X10129Y7054D02*
X10109D01*
X9849Y6994D02*
X9809D01*
X6889Y6954D02*
X6829D01*
X7369Y6994D02*
X7409D01*
X9849Y7014D02*
X9869D01*
X10529Y7054D02*
X10549D01*
X10429Y6894D02*
X10409D01*
X7089Y6194D02*
Y6154D01*
X7149Y6474D02*
Y6694D01*
Y7354D02*
Y7894D01*
X7109Y6214D02*
X7089Y6194D01*
X7149Y7894D02*
X7169Y7914D01*
X10809Y7214D02*
X10989D01*
X7449Y7194D02*
X7409D01*
X7229Y6834D02*
Y6654D01*
X7249Y7594D02*
Y8254D01*
X7349Y6974D02*
Y6474D01*
Y7934D02*
Y8494D01*
X7249Y7594D02*
X7229Y7574D01*
X7369Y6994D02*
X7349Y6974D01*
Y8494D02*
X7409Y8554D01*
X7349Y6474D02*
X7409Y6414D01*
X7369Y7914D02*
X7349Y7934D01*
X10869Y7394D02*
X11009D01*
X10989Y7414D02*
X10889D01*
X10629Y7354D02*
X10589D01*
X9889Y7434D02*
X9829D01*
X7409Y7094D02*
Y6994D01*
Y8414D02*
Y8514D01*
X7469Y8574D02*
Y9054D01*
X7449Y9074D02*
Y9114D01*
X7409Y8414D02*
Y8014D01*
X7469Y7954D02*
Y7734D01*
X7409Y6414D02*
Y6314D01*
Y8554D02*
Y8614D01*
X7489Y6754D02*
Y6554D01*
X7389Y8674D02*
Y9154D01*
X7409Y8654D02*
Y8614D01*
Y6894D02*
Y6514D01*
X7469Y6954D02*
Y7174D01*
X7509Y8914D02*
Y9154D01*
X7469Y8574D02*
X7409Y8514D01*
X7469Y7734D02*
X7449Y7714D01*
X7489Y6554D02*
X7449Y6514D01*
X7489Y6754D02*
X7549Y6814D01*
X7389Y9154D02*
X7409Y9174D01*
X7469Y6954D02*
X7409Y6894D01*
X7569Y6594D02*
X7529Y6554D01*
X7509Y9314D02*
X7589Y9394D01*
X7449Y9074D02*
X7469Y9054D01*
X7409Y8014D02*
X7469Y7954D01*
X7509Y9154D02*
X7489Y9174D01*
X7389Y8674D02*
X7409Y8654D01*
X7449Y7194D02*
X7469Y7174D01*
X7589Y8834D02*
X7509Y8914D01*
X10009Y7674D02*
X10049D01*
X9409D02*
X9389D01*
X9409Y7514D02*
X9469D01*
X8489D02*
X8469D01*
X8389D02*
X8369D01*
X8289D02*
X8269D01*
X8189D02*
X8169D01*
X8089D02*
X8069D01*
X7989D02*
X7969D01*
X7889D02*
X7869D01*
X7809D02*
X7789D01*
X7689D02*
X7669D01*
X9409Y7574D02*
X9429D01*
X9409D02*
X9369D01*
X8589Y7514D02*
X8569D01*
X8669D02*
X8689D01*
X8769D02*
X8789D01*
X8869D02*
X8889D01*
X11009Y7494D02*
X11029D01*
X7229Y7574D02*
X7189D01*
X9589Y7494D02*
X9929D01*
X7749Y8234D02*
Y8834D01*
Y7354D02*
Y6794D01*
X7689Y6734D02*
Y6714D01*
X7729Y6774D02*
Y7274D01*
X7629Y6734D02*
Y9514D01*
X7689Y8914D02*
Y8874D01*
X7649Y8834D02*
Y8234D01*
X7689Y8054D02*
Y7514D01*
X7649Y8094D02*
Y8194D01*
X7689Y7254D02*
Y6814D01*
X7649Y7294D02*
Y7494D01*
X7689Y6814D02*
Y6774D01*
X7649Y6734D02*
Y6134D01*
X7629Y6394D02*
Y6574D01*
X7589Y6554D02*
Y6394D01*
Y7294D02*
Y8114D01*
Y7414D02*
Y7294D01*
Y8814D02*
Y8834D01*
Y8114D02*
Y7514D01*
Y9394D02*
Y9514D01*
Y7514D02*
Y7414D01*
X7689Y8974D02*
Y9514D01*
X7729Y8934D02*
Y8834D01*
X7689Y8814D02*
Y8274D01*
X7729Y8234D02*
Y8134D01*
X7689Y7454D02*
Y7414D01*
X7729Y7494D02*
Y8094D01*
X7749Y8834D02*
X7789Y8874D01*
X7729Y6774D02*
X7689Y6734D01*
X7629Y9514D02*
X7669Y9554D01*
X7629Y6734D02*
X7609Y6714D01*
X7649Y8834D02*
X7689Y8874D01*
X7669Y8214D02*
X7649Y8194D01*
X7669Y7514D02*
X7649Y7494D01*
X7689Y6774D02*
X7649Y6734D01*
X7709Y8814D02*
X7729Y8834D01*
Y8134D02*
X7709Y8114D01*
X7729Y7494D02*
X7689Y7454D01*
X7769Y8214D02*
X7749Y8234D01*
Y6794D02*
X7789Y6754D01*
X7729Y7274D02*
X7709Y7294D01*
X7669Y8214D02*
X7649Y8234D01*
Y8094D02*
X7689Y8054D01*
X7649Y7294D02*
X7689Y7254D01*
X7649Y6134D02*
X7669Y6114D01*
X7629Y6574D02*
X7609Y6594D01*
X7729Y8934D02*
X7689Y8974D01*
Y8274D02*
X7729Y8234D01*
X7709Y8114D02*
X7729Y8094D01*
X10009Y7774D02*
X10029D01*
X7449Y7714D02*
X7409D01*
X8989D02*
X9009D01*
X9989Y7734D02*
X10029D01*
X7889Y8874D02*
Y8914D01*
X7849Y8834D02*
Y8234D01*
X7889Y8054D02*
Y7514D01*
X7849Y8094D02*
Y8194D01*
X7889Y7354D02*
Y6814D01*
X7849Y7394D02*
Y7494D01*
X7789Y8874D02*
Y8914D01*
Y8054D02*
Y7514D01*
X7829Y8094D02*
Y8194D01*
X7789Y7354D02*
Y6814D01*
X7829Y7394D02*
Y7494D01*
X7789Y6754D02*
Y6714D01*
X7889Y8974D02*
Y9514D01*
X7929Y8934D02*
Y8834D01*
X7889Y8814D02*
Y8274D01*
X7929Y8234D02*
Y8134D01*
X7889Y7454D02*
Y7414D01*
X7929Y7494D02*
Y8094D01*
X7829Y6994D02*
Y6134D01*
X7889Y6114D02*
Y6414D01*
X7789Y8974D02*
Y9514D01*
X7829Y8934D02*
Y8834D01*
X7849D02*
X7889Y8874D01*
X7869Y8214D02*
X7849Y8194D01*
X7869Y7514D02*
X7849Y7494D01*
X7789Y8054D02*
X7829Y8094D01*
Y7394D02*
X7789Y7354D01*
X7909Y8814D02*
X7929Y8834D01*
Y8134D02*
X7909Y8114D01*
X7929Y7494D02*
X7889Y7454D01*
X7829Y6134D02*
X7809Y6114D01*
Y8814D02*
X7829Y8834D01*
X7849Y8234D02*
X7869Y8214D01*
X7849Y8094D02*
X7889Y8054D01*
X7849Y7394D02*
X7889Y7354D01*
X7929Y6814D02*
X7989Y6754D01*
X7829Y8194D02*
X7809Y8214D01*
Y7514D02*
X7829Y7494D01*
X7929Y8934D02*
X7889Y8974D01*
Y8274D02*
X7929Y8234D01*
X7909Y8114D02*
X7929Y8094D01*
X7829Y8934D02*
X7789Y8974D01*
X7189Y7914D02*
X7169D01*
X7369D02*
X7409D01*
X7989Y8874D02*
Y8914D01*
X7949Y8834D02*
Y8234D01*
X7989Y8054D02*
Y7514D01*
X7949Y8094D02*
Y8194D01*
X7989Y7354D02*
Y6814D01*
X7949Y7394D02*
Y7494D01*
X7989Y6754D02*
Y6714D01*
Y8974D02*
Y9514D01*
Y8814D02*
Y8274D01*
Y7454D02*
Y7414D01*
Y6134D02*
Y6114D01*
X8089Y8214D02*
Y8754D01*
X8049Y8794D02*
Y8894D01*
X8089Y8054D02*
Y7514D01*
X8049Y8094D02*
Y8194D01*
X8089Y7094D02*
Y6814D01*
X8069Y7114D02*
Y7374D01*
X8049Y7394D02*
Y7494D01*
X8089Y6754D02*
Y6714D01*
X8029Y8834D02*
Y8934D01*
Y8234D02*
Y8134D01*
Y8094D02*
Y7494D01*
X8089Y7414D02*
Y7134D01*
X8109Y7114D02*
Y6854D01*
X8129Y6834D02*
Y6334D01*
X8089Y8974D02*
Y9514D01*
X8129Y8934D02*
Y8834D01*
X8089Y8154D02*
Y8114D01*
X8129Y8194D02*
Y8794D01*
X8089Y7454D02*
Y7414D01*
X8129Y7494D02*
Y8094D01*
X7949Y8834D02*
X7989Y8874D01*
X7969Y8214D02*
X7949Y8194D01*
X7969Y7514D02*
X7949Y7494D01*
X7989Y7454D02*
X8029Y7494D01*
X8049Y8894D02*
X8069Y8914D01*
Y8214D02*
X8049Y8194D01*
X8069Y7514D02*
X8049Y7494D01*
X8009Y8814D02*
X8029Y8834D01*
Y8134D02*
X8009Y8114D01*
X8109Y8814D02*
X8129Y8834D01*
Y8194D02*
X8089Y8154D01*
X8129Y7494D02*
X8089Y7454D01*
X7969Y8214D02*
X7949Y8234D01*
Y8094D02*
X7989Y8054D01*
X7949Y7394D02*
X7989Y7354D01*
X8029Y8934D02*
X7989Y8974D01*
Y8274D02*
X8029Y8234D01*
X8089Y8754D02*
X8049Y8794D01*
Y8094D02*
X8089Y8054D01*
X8069Y7114D02*
X8089Y7094D01*
X8069Y7374D02*
X8049Y7394D01*
X8029Y6814D02*
X8089Y6754D01*
X8029Y8094D02*
X8009Y8114D01*
X8089Y7134D02*
X8109Y7114D01*
Y6854D02*
X8129Y6834D01*
Y8934D02*
X8089Y8974D01*
X8109Y8814D02*
X8129Y8794D01*
X8109Y8114D02*
X8129Y8094D01*
X7909Y8114D02*
X7889D01*
X7989D02*
X8009D01*
X8289D02*
X8309D01*
X8109D02*
X8089D01*
X9969Y8174D02*
X10009D01*
X8909Y8114D02*
X8889D01*
X8809D02*
X8789D01*
X8709D02*
X8689D01*
X8609D02*
X8589D01*
X8509D02*
X8489D01*
X8209D02*
X8189D01*
X9989Y8074D02*
X10009D01*
X7709Y8114D02*
X7689D01*
X8469Y8214D02*
X8489D01*
X8389D02*
X8369D01*
X8289D02*
X8269D01*
X8189D02*
X8169D01*
X8089D02*
X8069D01*
X7989D02*
X7969D01*
X7889D02*
X7869D01*
X7789D02*
X7769D01*
X7789D02*
X7809D01*
X7689D02*
X7669D01*
X8569D02*
X8589D01*
X8669D02*
X8689D01*
X8769D02*
X8789D01*
X8869D02*
X8889D01*
X8249Y8794D02*
Y8894D01*
Y8194D02*
Y8094D01*
Y7494D02*
Y7234D01*
X8189Y8214D02*
Y8754D01*
X8149Y8794D02*
Y8894D01*
X8189Y8054D02*
Y7514D01*
X8149Y8094D02*
Y8194D01*
X8189Y7354D02*
Y6814D01*
X8149Y7394D02*
Y7494D01*
Y7134D02*
Y6294D01*
X8189Y6414D02*
Y6114D01*
Y8974D02*
Y9514D01*
X8229Y8934D02*
Y8834D01*
X8189Y8154D02*
Y8114D01*
X8229Y8194D02*
Y8794D01*
X8189Y7454D02*
Y7414D01*
X8229Y7494D02*
Y8094D01*
X8289Y8214D02*
Y8754D01*
Y8054D02*
Y7514D01*
Y6834D02*
Y6814D01*
X8269Y6854D02*
Y7214D01*
X8289Y6754D02*
Y6714D01*
Y8134D02*
Y8154D01*
Y8974D02*
Y9494D01*
Y9514D02*
Y8974D01*
X8329Y8934D02*
Y8834D01*
X8289Y8154D02*
Y8114D01*
X8329Y8194D02*
Y8794D01*
X8289Y7454D02*
Y7414D01*
X8329Y7494D02*
Y8094D01*
X8289Y7254D02*
Y6874D01*
X8329Y6834D02*
Y6134D01*
X8249Y8894D02*
X8269Y8914D01*
Y8214D02*
X8249Y8194D01*
X8269Y7514D02*
X8249Y7494D01*
X8149Y8894D02*
X8169Y8914D01*
Y8214D02*
X8149Y8194D01*
X8169Y7514D02*
X8149Y7494D01*
X8209Y8814D02*
X8229Y8834D01*
Y8194D02*
X8189Y8154D01*
X8229Y7494D02*
X8189Y7454D01*
X8309Y8814D02*
X8329Y8834D01*
Y8194D02*
X8289Y8154D01*
X8329Y7494D02*
X8289Y7454D01*
X8329Y6134D02*
X8309Y6114D01*
X8289Y8754D02*
X8249Y8794D01*
Y8094D02*
X8289Y8054D01*
X8249Y7234D02*
X8269Y7214D01*
X8189Y8754D02*
X8149Y8794D01*
Y8094D02*
X8189Y8054D01*
X8149Y7394D02*
X8189Y7354D01*
X8229Y6814D02*
X8289Y6754D01*
Y9494D02*
X8229Y9554D01*
X8189Y8974D02*
X8229Y8934D01*
X8209Y8814D02*
X8229Y8794D01*
X8209Y8114D02*
X8229Y8094D01*
X8269Y6854D02*
X8289Y6834D01*
X8329Y8094D02*
X8289Y8134D01*
X8329Y8934D02*
X8289Y8974D01*
X8309Y8814D02*
X8329Y8794D01*
X8309Y8114D02*
X8329Y8094D01*
X8289Y6874D02*
X8329Y6834D01*
X10889Y8294D02*
X10929D01*
Y8314D02*
X10729D01*
X10129Y8434D02*
X10109D01*
X8489Y8214D02*
Y8754D01*
X8449Y8794D02*
Y8894D01*
X8489Y8054D02*
Y7514D01*
X8449Y8094D02*
Y8194D01*
X8489Y7014D02*
Y6814D01*
X8469Y7034D02*
Y7374D01*
X8449Y7394D02*
Y7494D01*
X8389Y8214D02*
Y8514D01*
X8369Y8534D02*
Y8774D01*
X8349Y8794D02*
Y8894D01*
X8389Y7534D02*
Y7514D01*
X8369Y7554D02*
Y8074D01*
X8349Y8094D02*
Y8194D01*
X8389Y7354D02*
Y6814D01*
X8349Y7394D02*
Y7494D01*
X8489Y6754D02*
Y6714D01*
X8389Y6294D02*
Y6114D01*
X8489D02*
Y6134D01*
Y7074D02*
Y7414D01*
Y9094D02*
Y9514D01*
Y8974D01*
Y8154D02*
Y8114D01*
Y7454D02*
Y7414D01*
X8389Y7574D02*
Y8114D01*
X8429Y7534D02*
Y7354D01*
X8389Y8554D02*
Y8814D01*
X8449Y8494D02*
Y8234D01*
X8429Y8214D02*
Y7594D01*
X8529Y8834D02*
Y8934D01*
Y8794D02*
Y8194D01*
Y8094D02*
Y7494D01*
X8449Y8894D02*
X8469Y8914D01*
Y8214D02*
X8449Y8194D01*
X8469Y7514D02*
X8449Y7494D01*
X8349Y8894D02*
X8369Y8914D01*
Y8214D02*
X8349Y8194D01*
X8369Y7514D02*
X8349Y7494D01*
X8509Y6154D02*
X8489Y6134D01*
Y8154D02*
X8529Y8194D01*
Y7494D02*
X8489Y7454D01*
X8429Y8214D02*
X8449Y8234D01*
X8509Y8814D02*
X8529Y8834D01*
X8449Y8794D02*
X8489Y8754D01*
X8449Y8094D02*
X8489Y8054D01*
X8469Y7034D02*
X8489Y7014D01*
X8469Y7374D02*
X8449Y7394D01*
X8389Y8514D02*
X8369Y8534D01*
Y8774D02*
X8349Y8794D01*
X8369Y7554D02*
X8389Y7534D01*
X8369Y8074D02*
X8349Y8094D01*
Y7394D02*
X8389Y7354D01*
X8429Y6814D02*
X8489Y6754D01*
X8509Y7054D02*
X8489Y7074D01*
X8529Y8934D02*
X8489Y8974D01*
X8389Y7574D02*
X8429Y7534D01*
X8449Y8494D02*
X8389Y8554D01*
X8529Y8794D02*
X8509Y8814D01*
Y8114D02*
X8529Y8094D01*
X8589Y8054D02*
Y7514D01*
Y6814D02*
Y6774D01*
X8629Y6734D02*
Y6254D01*
X8589Y8214D02*
Y8754D01*
X8549Y8794D02*
Y8894D01*
Y8194D02*
Y8094D01*
X8589Y6834D02*
Y6814D01*
X8569Y6854D02*
Y7374D01*
X8549Y7394D02*
Y7494D01*
X8689Y8214D02*
Y8754D01*
X8649Y8794D02*
Y8894D01*
X8689Y8054D02*
Y7514D01*
X8649Y8094D02*
Y8194D01*
X8689Y6834D02*
Y6814D01*
X8669Y6854D02*
Y7374D01*
X8649Y7394D02*
Y7494D01*
X8689Y7414D02*
Y6874D01*
Y8974D02*
Y9514D01*
Y8154D02*
Y8114D01*
Y7454D02*
Y7414D01*
X8669Y9254D02*
Y9474D01*
Y9274D01*
X8589Y7414D02*
Y6874D01*
X8649Y6814D02*
Y6214D01*
X8589Y8974D02*
Y9514D01*
X8629Y8934D02*
Y8834D01*
X8589Y8814D02*
Y8794D01*
X8609Y8774D02*
Y8254D01*
X8629Y8234D02*
Y8134D01*
X8589Y7454D02*
Y7414D01*
X8629Y7494D02*
Y8094D01*
Y6254D02*
X8589Y6214D01*
X8549Y8894D02*
X8569Y8914D01*
Y8214D02*
X8549Y8194D01*
X8569Y7514D02*
X8549Y7494D01*
X8649Y8894D02*
X8669Y8914D01*
Y8214D02*
X8649Y8194D01*
X8669Y7514D02*
X8649Y7494D01*
X8729Y6314D02*
X8709Y6294D01*
Y8814D02*
X8729Y8834D01*
Y8194D02*
X8689Y8154D01*
X8729Y7494D02*
X8689Y7454D01*
X8649Y9254D02*
X8669Y9274D01*
X8649Y6214D02*
X8589Y6154D01*
X8609Y8814D02*
X8629Y8834D01*
Y8134D02*
X8609Y8114D01*
X8629Y7494D02*
X8589Y7454D01*
Y6774D02*
X8629Y6734D01*
X8589Y8754D02*
X8549Y8794D01*
Y8094D02*
X8589Y8054D01*
X8569Y6854D02*
X8589Y6834D01*
X8569Y7374D02*
X8549Y7394D01*
X8689Y8754D02*
X8649Y8794D01*
Y8094D02*
X8689Y8054D01*
X8669Y6854D02*
X8689Y6834D01*
X8669Y7374D02*
X8649Y7394D01*
X8689Y6874D02*
X8729Y6834D01*
Y8934D02*
X8689Y8974D01*
X8709Y8814D02*
X8729Y8794D01*
X8709Y8114D02*
X8729Y8094D01*
X8629Y9494D02*
X8609Y9514D01*
X8649Y9494D02*
X8669Y9474D01*
X8589Y6874D02*
X8649Y6814D01*
X8629Y8934D02*
X8589Y8974D01*
Y8794D02*
X8609Y8774D01*
Y8254D02*
X8629Y8234D01*
X8609Y8114D02*
X8629Y8094D01*
X11009Y8654D02*
X11049D01*
X10009Y8674D02*
X9969D01*
X9409D02*
X9389D01*
X7909Y8814D02*
X7889D01*
X7989D02*
X8009D01*
X8289D02*
X8309D01*
X8109D02*
X8089D01*
X10709Y8774D02*
X10729D01*
X8909Y8814D02*
X8889D01*
X8809D02*
X8789D01*
X8709D02*
X8689D01*
X8609D02*
X8589D01*
X8509D02*
X8489D01*
X8209D02*
X8189D01*
X9989Y8734D02*
X10009D01*
X10989Y8754D02*
X11009D01*
X11029Y8814D02*
X10889D01*
X7809D02*
X7789D01*
X7709D02*
X7689D01*
X8729Y8974D02*
Y9314D01*
X8749Y6734D02*
Y6134D01*
Y8234D02*
Y8834D01*
Y8194D02*
Y8094D01*
Y7494D02*
Y7394D01*
X8729Y6834D02*
Y6314D01*
Y8834D02*
Y8934D01*
Y8794D02*
Y8194D01*
Y8094D02*
Y7494D01*
X8889Y6214D02*
Y6114D01*
X8769Y8914D02*
Y8934D01*
X8789Y6814D02*
Y6774D01*
Y8874D02*
Y8914D01*
Y8054D02*
Y7514D01*
Y6834D02*
Y6814D01*
X8769Y6854D02*
Y7374D01*
X8889Y8574D02*
Y8814D01*
Y9374D02*
Y9514D01*
Y8974D01*
Y8814D02*
Y8274D01*
Y7454D02*
Y7414D01*
X8789D02*
Y6874D01*
X8829Y6834D02*
Y6414D01*
X8789Y9274D02*
Y9514D01*
Y8974D01*
X8829Y8934D02*
Y8834D01*
X8789Y8814D02*
Y8274D01*
X8829Y8234D02*
Y8134D01*
X8789Y7454D02*
Y7414D01*
X8829Y7494D02*
Y8094D01*
X8849Y7054D02*
Y6454D01*
X8869Y6434D02*
Y6254D01*
X8789Y6174D02*
Y6114D01*
X8889Y7514D02*
Y8054D01*
X8849Y8094D02*
Y8194D01*
X8889Y8874D02*
Y8914D01*
X8849Y8834D02*
Y8234D01*
X8889Y7354D02*
Y6814D01*
X8849Y7394D02*
Y7494D01*
X8789Y6774D02*
X8749Y6734D01*
Y6134D02*
X8729Y6114D01*
X8749Y8834D02*
X8789Y8874D01*
X8769Y8214D02*
X8749Y8194D01*
X8769Y7514D02*
X8749Y7494D01*
X8909Y8814D02*
X8929Y8834D01*
Y8134D02*
X8909Y8114D01*
X8929Y7494D02*
X8889Y7454D01*
X8809Y8814D02*
X8829Y8834D01*
Y8134D02*
X8809Y8114D01*
X8829Y7494D02*
X8789Y7454D01*
X8869Y6254D02*
X8789Y6174D01*
X8849Y8194D02*
X8869Y8214D01*
X8849Y8834D02*
X8889Y8874D01*
X8869Y7514D02*
X8849Y7494D01*
X8769Y8934D02*
X8729Y8974D01*
X8749Y8234D02*
X8769Y8214D01*
X8749Y8094D02*
X8789Y8054D01*
X8749Y7394D02*
X8769Y7374D01*
Y6854D02*
X8789Y6834D01*
X8929Y8934D02*
X8889Y8974D01*
Y8274D02*
X8929Y8234D01*
X8909Y8114D02*
X8929Y8094D01*
X8789Y6874D02*
X8829Y6834D01*
Y8934D02*
X8789Y8974D01*
Y8274D02*
X8829Y8234D01*
X8809Y8114D02*
X8829Y8094D01*
X8849Y6454D02*
X8869Y6434D01*
X8889Y8054D02*
X8849Y8094D01*
X8869Y8214D02*
X8849Y8234D01*
Y7394D02*
X8889Y7354D01*
X8489Y8914D02*
X8469D01*
X8389D02*
X8369D01*
X8289D02*
X8269D01*
X8189D02*
X8169D01*
X8089D02*
X8069D01*
X8569D02*
X8589D01*
X8669D02*
X8689D01*
X8769D02*
X8789D01*
X9409Y9014D02*
X9429D01*
X10989Y8994D02*
X11009D01*
Y8954D02*
X11029D01*
X9269Y8934D02*
X9209D01*
X9369Y8974D02*
X9409D01*
X10989Y8854D02*
X11009D01*
X8949Y6854D02*
Y6134D01*
X8969Y7734D02*
Y9074D01*
X8949Y9034D02*
Y7654D01*
X8989Y6774D02*
Y6714D01*
X9089Y9394D02*
Y9534D01*
Y8874D02*
Y8634D01*
X9069Y8894D02*
Y8934D01*
X9089Y6654D02*
Y6114D01*
X9109Y7414D02*
Y7494D01*
X9009Y7754D02*
Y7794D01*
Y8054D02*
Y8094D01*
X9049Y8134D02*
Y8374D01*
X8929Y8834D02*
Y8934D01*
Y8234D02*
Y8134D01*
Y8094D02*
Y7494D01*
Y9054D02*
Y9094D01*
X9149Y6714D02*
X9089Y6654D01*
X9009Y8094D02*
X9049Y8134D01*
X8929Y9094D02*
X8949Y9114D01*
Y6134D02*
X8969Y6114D01*
X8989Y7714D02*
X8969Y7734D01*
X9169Y8554D02*
X9089Y8634D01*
Y8874D02*
X9069Y8894D01*
X9109Y7414D02*
X9129Y7394D01*
X8949Y9034D02*
X8929Y9054D01*
X9989Y9074D02*
X10009D01*
X10989Y9054D02*
X11009D01*
X10129Y9074D02*
X10069D01*
X10029Y9114D02*
X9989D01*
X8989D02*
X8949D01*
X7489Y9174D02*
X7409D01*
X10029Y9234D02*
X10129D01*
X9169Y8554D02*
Y8454D01*
X9149Y7574D02*
Y6714D01*
X9249Y9274D02*
Y9534D01*
Y7374D02*
Y6814D01*
X9229Y7394D02*
Y7954D01*
X9189Y7994D02*
Y8374D01*
X9229Y8414D02*
Y8774D01*
X9129Y7394D02*
Y6914D01*
X9169Y8654D02*
Y8894D01*
X9249Y7994D02*
Y7414D01*
X9169Y7954D02*
Y8274D01*
X9189Y6714D02*
Y6214D01*
X9249Y9094D02*
Y9134D01*
X9189Y6714D02*
Y6114D01*
X9169Y6834D02*
Y7194D01*
X9309Y7454D02*
Y7594D01*
Y7394D02*
Y7354D01*
X9269Y7434D02*
Y8534D01*
X9309Y6994D02*
Y6954D01*
X9269Y7034D02*
Y7394D01*
X9309Y7254D02*
Y7154D01*
Y8254D02*
Y8534D01*
X9229Y8414D02*
X9189Y8374D01*
X9169Y8894D02*
X9189Y8914D01*
X9169Y8894D02*
X9209Y8934D01*
X9189Y7214D02*
X9169Y7194D01*
X9309Y7594D02*
X9389Y7674D01*
X9309Y8534D02*
X9409Y8634D01*
X9229Y7394D02*
X9249Y7374D01*
X9229Y7954D02*
X9189Y7994D01*
X9249Y7414D02*
X9269Y7394D01*
X9249Y7994D02*
X9229Y8014D01*
X9169Y8274D02*
X9149Y8294D01*
X9169Y6834D02*
X9229Y6774D01*
X9309Y7394D02*
X9269Y7434D01*
Y7034D02*
X9309Y6994D01*
X9289Y6774D02*
X9349Y6714D01*
X9989Y9314D02*
X10149D01*
X10109Y9414D02*
X10289D01*
X10069Y9374D02*
X10009D01*
X10109Y9334D02*
X10209D01*
X8669Y9254D02*
X8649D01*
X10709Y9414D02*
X10749D01*
X7509Y9314D02*
X7449D01*
X9369Y7474D02*
Y6994D01*
X9409Y8174D02*
Y8274D01*
X9369Y9054D02*
Y9114D01*
X9449Y8994D02*
Y7594D01*
X9429Y6894D02*
Y6474D01*
X9349Y6974D02*
Y7554D01*
X9409Y9274D02*
Y9314D01*
Y7774D02*
Y7674D01*
Y9074D02*
Y9114D01*
X9489Y6874D02*
Y6714D01*
X9429Y7034D02*
Y7334D01*
X9409Y8634D02*
Y8674D01*
Y8934D02*
Y8974D01*
X9369Y8894D02*
Y8694D01*
X9509Y8674D02*
Y7554D01*
X9469Y7514D01*
X9409D02*
X9369Y7474D01*
X9429Y7574D02*
X9449Y7594D01*
X9369Y7574D02*
X9349Y7554D01*
X9369Y8894D02*
X9409Y8934D01*
X9549Y6494D02*
X9509Y6454D01*
X9409Y9014D02*
X9369Y9054D01*
X9429Y9014D02*
X9449Y8994D01*
X9349Y6974D02*
X9429Y6894D01*
X9389Y8674D02*
X9369Y8694D01*
X8229Y9554D02*
X7669D01*
X10009Y9474D02*
X10049D01*
X9529D02*
X9409D01*
X9589Y9534D02*
X10429D01*
X10269Y9514D02*
X9609D01*
X8609D02*
X8589D01*
X8629Y9494D02*
X8649D01*
X10129Y9474D02*
X10269D01*
X10729D02*
X10989D01*
X9629Y7254D02*
Y7174D01*
Y7354D02*
Y7434D01*
X9549Y7274D02*
Y6574D01*
X9609Y6294D02*
Y6254D01*
Y6714D02*
Y6754D01*
X9649Y6674D02*
Y6534D01*
X9609Y6754D02*
Y6934D01*
Y6454D02*
Y6354D01*
Y7034D02*
Y7094D01*
X9549Y7274D02*
X9629Y7354D01*
X9529Y9474D02*
X9589Y9534D01*
X9649Y6534D02*
X9609Y6494D01*
X9729Y6314D02*
X9629Y6214D01*
X9569Y6554D02*
X9549Y6574D01*
X9649Y6674D02*
X9609Y6714D01*
X9729Y6694D02*
Y6314D01*
X9829Y7174D02*
Y7254D01*
X9869Y6974D02*
Y6814D01*
X9849Y6794D02*
Y6474D01*
X9809Y6414D02*
Y6934D01*
Y7054D02*
Y7094D01*
X9889Y6994D02*
Y6794D01*
X9869Y6774D02*
Y6674D01*
X9789Y6854D02*
Y6454D01*
X9769Y6434D02*
Y6394D01*
X9849Y6794D02*
X9869Y6814D01*
X9889Y6794D02*
X9869Y6774D01*
X9789Y6454D02*
X9769Y6434D01*
X9909Y7094D02*
X9829Y7174D01*
X9849Y6994D02*
X9869Y6974D01*
X9849Y6474D02*
X9869Y6454D01*
X9949Y7374D02*
X9889Y7434D01*
X9809Y7054D02*
X9849Y7014D01*
X9869D02*
X9889Y6994D01*
X9869Y6674D02*
X9889Y6654D01*
X9769Y6394D02*
X9809Y6354D01*
X9969Y6314D02*
Y6774D01*
X9929Y8214D02*
Y9254D01*
X9909Y7094D02*
Y6814D01*
X9949Y6774D02*
Y6574D01*
Y6974D02*
Y7374D01*
X9969Y8754D02*
Y9054D01*
X9909Y6354D02*
Y6254D01*
Y6194D02*
Y6154D01*
X9949Y8694D02*
Y9074D01*
X9969Y8054D02*
Y7754D01*
X10009Y8834D02*
Y8874D01*
X10089Y7034D02*
Y6894D01*
X10009Y9254D02*
Y9274D01*
X10029Y6974D02*
Y6894D01*
X10069Y7014D02*
Y7654D01*
X10009Y8534D02*
Y8574D01*
X10049Y8494D02*
Y7794D01*
X10089Y6494D02*
Y6274D01*
X10069Y8474D02*
Y8674D01*
Y6574D02*
Y6354D01*
X10089Y7334D02*
Y7674D01*
X10029Y7394D02*
Y7354D01*
X9929Y9254D02*
X9989Y9314D01*
X9949Y6574D02*
X9929Y6554D01*
X9969Y9054D02*
X9989Y9074D01*
X9949D02*
X9989Y9114D01*
Y8074D02*
X9969Y8054D01*
X10109Y7054D02*
X10089Y7034D01*
X10069Y7014D02*
X10029Y6974D01*
Y7774D02*
X10049Y7794D01*
X10169Y6574D02*
X10089Y6494D01*
X10069Y6574D02*
X10089Y6594D01*
X9969Y8174D02*
X9929Y8214D01*
X9909Y6814D02*
X9949Y6774D01*
X9989Y8734D02*
X9969Y8754D01*
X9949Y8694D02*
X9969Y8674D01*
Y7754D02*
X9989Y7734D01*
X9929Y7494D02*
X10029Y7394D01*
X10109Y9414D02*
X10049Y9474D01*
X10069Y9374D02*
X10109Y9334D01*
X10009Y9254D02*
X10029Y9234D01*
X10049Y7674D02*
X10069Y7654D01*
X10049Y8494D02*
X10009Y8534D01*
X10069Y8474D02*
X10109Y8434D01*
X10069Y8674D02*
X10009Y8734D01*
X10069Y9074D02*
X10029Y9114D01*
X10089Y7334D02*
X10109Y7314D01*
X10089Y7674D02*
X10029Y7734D01*
X10229Y6534D02*
Y6434D01*
X10129Y8674D02*
Y8714D01*
Y6374D02*
Y6134D01*
X10189Y6434D02*
Y8434D01*
X10229Y8474D02*
Y9234D01*
X10189Y9174D02*
Y8494D01*
X10169Y8394D02*
Y6574D01*
X10109Y7194D02*
Y7314D01*
X10289Y6914D02*
Y6594D01*
X10229Y6534D01*
X10189Y6434D02*
X10129Y6374D01*
X10189Y8434D02*
X10229Y8474D01*
X10309Y6934D02*
X10289Y6914D01*
X10229Y9234D02*
X10149Y9314D01*
X10129Y9234D02*
X10189Y9174D01*
X10129Y8434D02*
X10169Y8394D01*
X10429Y6594D02*
Y6434D01*
X10329D02*
Y6534D01*
X10389Y6594D02*
Y6874D01*
X10469Y8674D02*
Y9074D01*
X10389Y6594D02*
X10329Y6534D01*
X10389Y6874D02*
X10409Y6894D01*
X10629Y6594D02*
Y6494D01*
X10529D02*
Y6594D01*
X10629Y6894D02*
Y6914D01*
X10549Y9034D02*
Y9154D01*
X10609Y9174D02*
Y8534D01*
X10589Y8454D02*
Y9154D01*
X10549Y8974D02*
Y7394D01*
X10509D02*
Y8914D01*
X10529Y7374D02*
Y7354D01*
X10569Y7474D02*
Y7874D01*
X10669Y7374D02*
Y6974D01*
X10649Y6954D01*
X10629Y6494D02*
X10689Y6434D01*
X10589D02*
X10529Y6494D01*
X10629Y6914D02*
X10609Y6934D01*
X10589Y7354D02*
X10549Y7394D01*
X10529Y7374D02*
X10509Y7394D01*
X10569Y7474D02*
X10669Y7374D01*
X10549Y7054D02*
X10649Y6954D01*
X10689Y8794D02*
Y9274D01*
X10729Y8414D02*
Y8374D01*
Y9334D02*
Y9374D01*
Y9294D02*
Y9274D01*
X10689Y9334D02*
Y9394D01*
X10729Y7774D02*
Y7734D01*
Y7934D02*
Y7974D01*
X10689Y7894D02*
Y7334D01*
X10729Y8034D02*
Y8074D01*
X10689Y6914D02*
Y6614D01*
X10729Y6594D02*
Y6554D01*
X10849Y7754D02*
Y8254D01*
X10789Y7514D02*
Y7474D01*
X10869Y8834D02*
Y9194D01*
Y7594D02*
Y7434D01*
X10689Y9394D02*
X10709Y9414D01*
X10729Y7934D02*
X10689Y7894D01*
X10849Y8254D02*
X10889Y8294D01*
X10709Y8774D02*
X10689Y8794D01*
X10729Y9294D02*
X10689Y9334D01*
Y6614D02*
X10709Y6594D01*
X10869Y7394D02*
X10789Y7474D01*
X10889Y8814D02*
X10869Y8834D01*
Y7434D02*
X10889Y7414D01*
X10909Y9054D02*
Y9154D01*
Y9054D02*
Y8954D01*
Y8854D01*
Y8754D02*
Y8654D01*
Y8554D01*
Y8454D01*
Y8354D01*
Y8254D02*
Y8154D01*
Y8054D01*
Y7954D01*
Y7854D01*
Y7754D01*
Y7654D01*
Y7554D01*
Y7454D01*
Y7354D02*
Y7254D01*
X10949Y7554D02*
Y8274D01*
X10969Y8354D02*
Y8734D01*
Y8874D02*
Y8974D01*
Y9074D02*
Y9194D01*
X11049Y7474D02*
Y7434D01*
Y9034D02*
Y9414D01*
Y8934D02*
Y8834D01*
X11009Y7454D02*
Y7434D01*
Y7254D02*
Y7234D01*
X10929Y8314D02*
X10969Y8354D01*
Y8734D02*
X10989Y8754D01*
X10969Y8974D02*
X10989Y8994D01*
X11009Y7434D02*
X10989Y7414D01*
X11009Y7234D02*
X10989Y7214D01*
X11009Y7394D02*
X11049Y7434D01*
Y8654D02*
X11089Y8694D01*
X11009Y8994D02*
X11049Y9034D01*
Y8834D02*
X11029Y8814D01*
X10929Y8294D02*
X10949Y8274D01*
Y7554D02*
X11009Y7494D01*
X11049Y9414D02*
X10989Y9474D01*
X10969Y8874D02*
X10989Y8854D01*
Y9054D02*
X10969Y9074D01*
X11029Y7494D02*
X11049Y7474D01*
Y8934D02*
X11029Y8954D01*
X11089Y8694D02*
Y9274D01*
X6760Y10200D02*
X6750Y10190D01*
X6760Y10200D02*
X6780D01*
X6790Y10190D01*
Y10180D01*
X6791D01*
X6790D02*
X6791D01*
X6790D02*
X6791D01*
X6790D02*
X6780Y10170D01*
X6770D01*
X6780D01*
X6790Y10160D01*
Y10150D01*
X6780Y10140D01*
X6760D01*
X6750Y10150D01*
X6810Y10190D02*
X6820Y10200D01*
X6840D01*
X6850Y10190D01*
Y10150D01*
X6840Y10140D01*
X6820D01*
X6810Y10150D01*
Y10190D01*
X6870Y10170D02*
X6910D01*
X6930Y10140D02*
Y10200D01*
X6950Y10180D01*
X6970Y10200D01*
Y10140D01*
X7000Y10180D02*
X7020D01*
X7030Y10170D01*
Y10140D01*
X7000D01*
X6990Y10150D01*
X7000Y10160D01*
X7030D01*
X7050Y10140D02*
Y10180D01*
Y10160D02*
Y10140D01*
Y10160D02*
X7060Y10170D01*
X7070Y10180D01*
X7080D01*
X7110Y10170D02*
X7150D01*
X7170Y10140D02*
X7190D01*
X7180D01*
Y10200D01*
X7181D01*
X7180D02*
X7170Y10190D01*
X7220Y10150D02*
X7230Y10140D01*
X7250D01*
X7260Y10150D01*
Y10190D01*
X7250Y10200D01*
X7230D01*
X7220Y10190D01*
Y10180D01*
X7230Y10170D01*
X7260D01*
X7280Y10150D02*
X7290Y10140D01*
X7310D01*
X7320Y10150D01*
Y10190D01*
X7310Y10200D01*
X7290D01*
X7280Y10190D01*
Y10180D01*
X7290Y10170D01*
X7320D01*
X7340Y10150D02*
X7350Y10140D01*
X7370D01*
X7380Y10150D01*
Y10190D01*
X7370Y10200D01*
X7350D01*
X7340Y10190D01*
Y10180D01*
X7350Y10170D01*
X7380D01*
X6750Y10000D02*
Y9940D01*
Y10000D02*
X6780D01*
X6790Y9990D01*
Y9970D01*
X6780Y9960D01*
X6750D01*
X6770D02*
X6790Y9940D01*
X6810D02*
Y10000D01*
Y9940D02*
X6840D01*
X6850Y9950D01*
Y9990D01*
X6840Y10000D01*
X6810D01*
X6870D02*
X6910D01*
X6870D02*
Y9940D01*
X6910D01*
X6890Y9970D02*
X6870D01*
X6930Y9940D02*
Y10000D01*
X6950Y9980D01*
X6970Y10000D01*
Y9940D01*
X7000Y10000D02*
X7020D01*
X7000D02*
X6990Y9990D01*
Y9950D01*
X7000Y9940D01*
X7020D01*
X7030Y9950D01*
Y9990D01*
X7020Y10000D01*
X7050Y9940D02*
X7070D01*
X7060D01*
Y10000D01*
X7061D01*
X7060D02*
X7050Y9990D01*
X7100Y9980D02*
Y9940D01*
Y9980D02*
X7120Y10000D01*
X7140Y9980D01*
Y9940D01*
Y9970D01*
X7100D01*
X7160Y9940D02*
Y10000D01*
X7190D01*
X7200Y9990D01*
Y9970D01*
X7190Y9960D01*
X7160D01*
X7220Y9950D02*
Y9940D01*
Y9950D02*
X7230D01*
Y9940D01*
X7220D01*
X7270D02*
Y10000D01*
X7300D01*
X7310Y9990D01*
Y9970D01*
X7300Y9960D01*
X7270D01*
X7360Y10000D02*
X7370Y9990D01*
X7360Y10000D02*
X7340D01*
X7330Y9990D01*
Y9950D01*
X7340Y9940D01*
X7360D01*
X7370Y9950D01*
X7390Y9940D02*
Y10000D01*
Y9940D02*
X7420D01*
X7430Y9950D01*
Y9960D01*
X7420Y9970D01*
X7390D01*
X7391D01*
X7390D02*
X7391D01*
X7390D02*
X7391D01*
X7390D02*
X7420D01*
X7430Y9980D01*
Y9990D01*
X7420Y10000D01*
X7390D01*
X6790Y9800D02*
X6750D01*
X6770D02*
X6790D01*
X6770D02*
Y9740D01*
X6820D02*
X6840D01*
X6850Y9750D01*
Y9770D01*
X6840Y9780D01*
X6820D01*
X6810Y9770D01*
Y9750D01*
X6820Y9740D01*
X6870Y9720D02*
Y9780D01*
X6900D01*
X6910Y9770D01*
Y9750D01*
X6900Y9740D01*
X6870D01*
X6990D02*
Y9800D01*
Y9740D02*
X7030D01*
X7060Y9780D02*
X7080D01*
X7090Y9770D01*
Y9740D01*
X7060D01*
X7050Y9750D01*
X7060Y9760D01*
X7090D01*
X7110Y9750D02*
Y9780D01*
Y9750D02*
X7120Y9740D01*
X7150D01*
Y9730D01*
X7140Y9720D01*
X7130D01*
X7150Y9740D02*
Y9780D01*
X7180Y9740D02*
X7200D01*
X7180D02*
X7170Y9750D01*
Y9770D01*
X7180Y9780D01*
X7200D01*
X7210Y9770D01*
Y9760D01*
X7170D01*
X7230Y9740D02*
Y9780D01*
Y9760D02*
Y9740D01*
Y9760D02*
X7240Y9770D01*
X7250Y9780D01*
X7260D01*
D15*
X13450Y10040D02*
X14050D01*
X6550D02*
X5950D01*
Y6040D02*
X6550D01*
X13750Y9740D02*
Y10340D01*
X6250D02*
Y9740D01*
Y6340D02*
Y5740D01*
X13850Y10040D02*
G75*
G02*X13850Y10040I-100D01*
G74*
X13950D02*
G75*
G02*X13950Y10040I-200D01*
G74*
X6450D02*
G75*
G02*X6450Y10040I-200D01*
G74*
X6350D02*
G75*
G02*X6350Y10040I-100D01*
G74*
Y6040D02*
G75*
G02*X6350Y6040I-100D01*
G74*
X6450D02*
G75*
G02*X6450Y6040I-200D01*
D22*
G74*
X11089Y9274D02*
D03*
X10789Y7514D02*
D03*
X10849Y7754D02*
D03*
X10509Y8914D02*
D03*
X10549Y8974D02*
D03*
Y9034D02*
D03*
X10469Y8674D02*
D03*
X10109Y7194D02*
D03*
X10189Y8494D02*
D03*
X9949Y6974D02*
D03*
X9969Y6314D02*
D03*
X9809Y6414D02*
D03*
X9729Y6694D02*
D03*
X9509Y8674D02*
D03*
Y6454D02*
D03*
X9269Y8534D02*
D03*
X9189Y7214D02*
D03*
X9149Y8294D02*
D03*
X9229Y8014D02*
D03*
Y8774D02*
D03*
X9249Y6814D02*
D03*
X9049Y8374D02*
D03*
X9109Y7414D02*
D03*
X8969Y9074D02*
D03*
X8949Y6854D02*
D03*
X8849Y7054D02*
D03*
X8789Y9274D02*
D03*
X8829Y6414D02*
D03*
X8889Y9374D02*
D03*
Y8574D02*
D03*
Y6214D02*
D03*
X8729Y9314D02*
D03*
X8649Y9254D02*
D03*
X8709Y6294D02*
D03*
X8589Y6214D02*
D03*
X8509Y7054D02*
D03*
X8429Y7594D02*
D03*
Y7354D02*
D03*
X8489Y9094D02*
D03*
X8389Y6294D02*
D03*
X8289Y7254D02*
D03*
X8189Y6414D02*
D03*
X8149Y7134D02*
D03*
X7969Y6174D02*
D03*
X7889Y6414D02*
D03*
X7829Y6994D02*
D03*
X7589Y6554D02*
D03*
X7709Y7294D02*
D03*
X7749Y7354D02*
D03*
X7529Y6554D02*
D03*
X7249Y8254D02*
D03*
X7229Y6654D02*
D03*
X7129Y6434D02*
D03*
X6909Y6794D02*
D03*
X10009Y9474D02*
D03*
Y9374D02*
D03*
Y9274D02*
D03*
Y9174D02*
D03*
Y9074D02*
D03*
Y8974D02*
D03*
Y8874D02*
D03*
Y8774D02*
D03*
Y8674D02*
D03*
Y8574D02*
D03*
Y8474D02*
D03*
Y8374D02*
D03*
Y8274D02*
D03*
Y8174D02*
D03*
Y8074D02*
D03*
Y7974D02*
D03*
Y7874D02*
D03*
Y7774D02*
D03*
Y7674D02*
D03*
Y7574D02*
D03*
X9409D02*
D03*
Y7674D02*
D03*
Y7774D02*
D03*
Y7874D02*
D03*
Y7974D02*
D03*
Y8074D02*
D03*
Y8174D02*
D03*
Y8274D02*
D03*
Y8374D02*
D03*
Y8474D02*
D03*
Y8574D02*
D03*
Y8674D02*
D03*
Y8774D02*
D03*
Y8874D02*
D03*
Y8974D02*
D03*
Y9074D02*
D03*
Y9174D02*
D03*
Y9274D02*
D03*
Y9374D02*
D03*
X9909Y6754D02*
D03*
Y6654D02*
D03*
Y6554D02*
D03*
Y6454D02*
D03*
Y6354D02*
D03*
Y6254D02*
D03*
Y6154D02*
D03*
X9609D02*
D03*
Y6254D02*
D03*
Y6354D02*
D03*
Y6454D02*
D03*
Y6554D02*
D03*
Y6654D02*
D03*
X9009Y6854D02*
D03*
Y6954D02*
D03*
Y7054D02*
D03*
Y7154D02*
D03*
Y7254D02*
D03*
Y7354D02*
D03*
Y7454D02*
D03*
X9309D02*
D03*
Y7354D02*
D03*
Y7254D02*
D03*
Y7154D02*
D03*
Y7054D02*
D03*
Y6954D02*
D03*
Y8254D02*
D03*
Y8154D02*
D03*
Y8054D02*
D03*
Y7954D02*
D03*
Y7854D02*
D03*
Y7754D02*
D03*
Y7654D02*
D03*
X9009D02*
D03*
Y7754D02*
D03*
Y7854D02*
D03*
Y7954D02*
D03*
Y8054D02*
D03*
Y8154D02*
D03*
X11009Y9154D02*
D03*
X10909Y9054D02*
D03*
X11009D02*
D03*
X10909Y8954D02*
D03*
X11009D02*
D03*
X10909Y8854D02*
D03*
X11009D02*
D03*
X10909Y8754D02*
D03*
X11009D02*
D03*
X10909Y8654D02*
D03*
X11009D02*
D03*
X10909Y8554D02*
D03*
X11009D02*
D03*
X10909Y8454D02*
D03*
X11009D02*
D03*
X10909Y8354D02*
D03*
X11009D02*
D03*
X10909Y8254D02*
D03*
X11009D02*
D03*
X10909Y8154D02*
D03*
X11009D02*
D03*
X10909Y8054D02*
D03*
X11009D02*
D03*
X10909Y7954D02*
D03*
X11009D02*
D03*
X10909Y7854D02*
D03*
X11009D02*
D03*
X10909Y7754D02*
D03*
X11009D02*
D03*
X10909Y7654D02*
D03*
X11009D02*
D03*
X10909Y7554D02*
D03*
X11009D02*
D03*
X10909Y7454D02*
D03*
X11009D02*
D03*
X10909Y7354D02*
D03*
X11009D02*
D03*
X10909Y7254D02*
D03*
X11009D02*
D03*
X10729Y6134D02*
D03*
X10629D02*
D03*
X10529D02*
D03*
X10429D02*
D03*
X10329D02*
D03*
X10229D02*
D03*
X10129D02*
D03*
X10029D02*
D03*
Y6434D02*
D03*
X10129D02*
D03*
X10229D02*
D03*
X10329D02*
D03*
X10429D02*
D03*
X10529D02*
D03*
X10629D02*
D03*
X10729Y6594D02*
D03*
X10629D02*
D03*
X10529D02*
D03*
X10429D02*
D03*
X10329D02*
D03*
X10229D02*
D03*
X10129D02*
D03*
X10029D02*
D03*
Y6894D02*
D03*
X10129D02*
D03*
X10229D02*
D03*
X10329D02*
D03*
X10429D02*
D03*
X10529D02*
D03*
X10629D02*
D03*
X10729Y9474D02*
D03*
Y9374D02*
D03*
Y9274D02*
D03*
Y9174D02*
D03*
Y9074D02*
D03*
Y8974D02*
D03*
Y8874D02*
D03*
Y8774D02*
D03*
Y8674D02*
D03*
Y8574D02*
D03*
Y8474D02*
D03*
Y8374D02*
D03*
Y8274D02*
D03*
Y8174D02*
D03*
Y8074D02*
D03*
Y7974D02*
D03*
Y7874D02*
D03*
Y7774D02*
D03*
Y7674D02*
D03*
Y7574D02*
D03*
X10129D02*
D03*
Y7674D02*
D03*
Y7774D02*
D03*
Y7874D02*
D03*
Y7974D02*
D03*
Y8074D02*
D03*
Y8174D02*
D03*
Y8274D02*
D03*
Y8374D02*
D03*
Y8474D02*
D03*
Y8574D02*
D03*
Y8674D02*
D03*
Y8774D02*
D03*
Y8874D02*
D03*
Y8974D02*
D03*
Y9074D02*
D03*
Y9174D02*
D03*
Y9274D02*
D03*
Y9374D02*
D03*
X7089Y9136D02*
D03*
Y9027D02*
D03*
Y8918D02*
D03*
Y8809D02*
D03*
X7189Y9190D02*
D03*
Y9081D02*
D03*
Y8972D02*
D03*
Y8863D02*
D03*
X7089Y7856D02*
D03*
Y7747D02*
D03*
Y7638D02*
D03*
Y7529D02*
D03*
X7189Y7910D02*
D03*
Y7801D02*
D03*
Y7692D02*
D03*
Y7583D02*
D03*
X7689Y6814D02*
D03*
X7789D02*
D03*
X7889D02*
D03*
X7989D02*
D03*
X8089D02*
D03*
X8189D02*
D03*
X8289D02*
D03*
X8389D02*
D03*
X8489D02*
D03*
X8589D02*
D03*
X8689D02*
D03*
X8789D02*
D03*
X8889D02*
D03*
Y7414D02*
D03*
X8789D02*
D03*
X8689D02*
D03*
X8589D02*
D03*
X8489D02*
D03*
X8389D02*
D03*
X8289D02*
D03*
X8189D02*
D03*
X8089D02*
D03*
X7989D02*
D03*
X7889D02*
D03*
X7789D02*
D03*
X7689D02*
D03*
X7589D02*
D03*
X7689Y7514D02*
D03*
X7789D02*
D03*
X7889D02*
D03*
X7989D02*
D03*
X8089D02*
D03*
X8189D02*
D03*
X8289D02*
D03*
X8389D02*
D03*
X8489D02*
D03*
X8589D02*
D03*
X8689D02*
D03*
X8789D02*
D03*
X8889D02*
D03*
Y8114D02*
D03*
X8789D02*
D03*
X8689D02*
D03*
X8589D02*
D03*
X8489D02*
D03*
X8389D02*
D03*
X8289D02*
D03*
X8189D02*
D03*
X8089D02*
D03*
X7989D02*
D03*
X7889D02*
D03*
X7789D02*
D03*
X7689D02*
D03*
X7589D02*
D03*
X7689Y8214D02*
D03*
X7789D02*
D03*
X7889D02*
D03*
X7989D02*
D03*
X8089D02*
D03*
X8189D02*
D03*
X8289D02*
D03*
X8389D02*
D03*
X8489D02*
D03*
X8589D02*
D03*
X8689D02*
D03*
X8789D02*
D03*
X8889D02*
D03*
Y8814D02*
D03*
X8789D02*
D03*
X8689D02*
D03*
X8589D02*
D03*
X8489D02*
D03*
X8389D02*
D03*
X8289D02*
D03*
X8189D02*
D03*
X8089D02*
D03*
X7989D02*
D03*
X7889D02*
D03*
X7789D02*
D03*
X7689D02*
D03*
X7589D02*
D03*
X7689Y8914D02*
D03*
X7789D02*
D03*
X7889D02*
D03*
X7989D02*
D03*
X8089D02*
D03*
X8189D02*
D03*
X8289D02*
D03*
X8389D02*
D03*
X8489D02*
D03*
X8589D02*
D03*
X8689D02*
D03*
X8789D02*
D03*
X8889D02*
D03*
Y9514D02*
D03*
X8789D02*
D03*
X8689D02*
D03*
X8589D02*
D03*
X8489D02*
D03*
X8389D02*
D03*
X8289D02*
D03*
X8189D02*
D03*
X8089D02*
D03*
X7989D02*
D03*
X7889D02*
D03*
X7789D02*
D03*
X7689D02*
D03*
X7589D02*
D03*
X10129Y7054D02*
D03*
X10229D02*
D03*
X10329D02*
D03*
X10429D02*
D03*
X10529D02*
D03*
X10629D02*
D03*
X10729D02*
D03*
Y7354D02*
D03*
X10629D02*
D03*
X10529D02*
D03*
X10429D02*
D03*
X10329D02*
D03*
X10229D02*
D03*
X10129D02*
D03*
X10029D02*
D03*
X7689Y6114D02*
D03*
X7789D02*
D03*
X7889D02*
D03*
X7989D02*
D03*
X8089D02*
D03*
X8189D02*
D03*
X8289D02*
D03*
X8389D02*
D03*
X8489D02*
D03*
X8589D02*
D03*
X8689D02*
D03*
X8789D02*
D03*
X8889D02*
D03*
X8989D02*
D03*
X9089D02*
D03*
X9189D02*
D03*
X9289D02*
D03*
X9389D02*
D03*
X9489D02*
D03*
Y6714D02*
D03*
X9389D02*
D03*
X9289D02*
D03*
X9189D02*
D03*
X9089D02*
D03*
X8989D02*
D03*
X8889D02*
D03*
X8789D02*
D03*
X8689D02*
D03*
X8589D02*
D03*
X8489D02*
D03*
X8389D02*
D03*
X8289D02*
D03*
X8189D02*
D03*
X8089D02*
D03*
X7989D02*
D03*
X7889D02*
D03*
X7789D02*
D03*
X7689D02*
D03*
X7589D02*
D03*
D25*
X11069Y6214D02*
D03*
Y6414D02*
D03*
X9429Y7034D02*
D03*
Y7434D02*
D03*
X9169Y8654D02*
D03*
Y8454D02*
D03*
X9269Y8934D02*
D03*
X9069D02*
D03*
X9089Y9134D02*
D03*
Y9534D02*
D03*
X7409Y6514D02*
D03*
Y6314D02*
D03*
Y7194D02*
D03*
Y6994D02*
D03*
X7449Y9314D02*
D03*
Y9114D02*
D03*
X7409Y7914D02*
D03*
Y7714D02*
D03*
X6829Y6834D02*
D03*
X7229D02*
D03*
X6829Y6954D02*
D03*
X7229D02*
D03*
X7089Y6554D02*
D03*
Y6154D02*
D03*
X9609Y6934D02*
D03*
X9809D02*
D03*
Y7094D02*
D03*
X9609D02*
D03*
X9629Y7254D02*
D03*
X9829D02*
D03*
X9629Y7434D02*
D03*
X9829D02*
D03*
X7409Y8614D02*
D03*
Y8414D02*
D03*
X6849Y6624D02*
D03*
Y6474D02*
D03*
Y6324D02*
D03*
Y6174D02*
D03*
X9249Y9134D02*
D03*
Y9534D02*
D03*
X7209Y6554D02*
D03*
Y6154D02*
D03*
D28*
X10979Y9354D02*
D03*
Y7054D02*
D03*
D30*
X7139Y9465D02*
D03*
Y8479D02*
D03*
Y8185D02*
D03*
Y7199D02*
D03*
D32*
X9409Y9474D02*
D03*
X9609Y6754D02*
D03*
X9309Y6854D02*
D03*
X9009Y8254D02*
D03*
X10909Y9154D02*
D03*
X10729Y6434D02*
D03*
Y6894D02*
D03*
X10129Y9474D02*
D03*
X7189Y8754D02*
D03*
Y7474D02*
D03*
X7589Y6814D02*
D03*
Y7514D02*
D03*
Y8214D02*
D03*
Y8914D02*
D03*
X10029Y7054D02*
D03*
X7589Y6114D02*
D03*
M02*
